G04 #@! TF.FileFunction,Legend,Top*
%FSLAX46Y46*%
G04 Gerber Fmt 4.6, Leading zero omitted, Abs format (unit mm)*
G04 Created by KiCad (PCBNEW 4.0.7) date 05/27/18 15:14:11*
%MOMM*%
%LPD*%
G01*
G04 APERTURE LIST*
%ADD10C,0.100000*%
%ADD11C,0.158750*%
%ADD12C,0.150000*%
%ADD13C,0.120000*%
G04 APERTURE END LIST*
D10*
D11*
X75542019Y-74155904D02*
X74526019Y-74155904D01*
X75251733Y-73817238D01*
X74526019Y-73478571D01*
X75542019Y-73478571D01*
X75445257Y-72414190D02*
X75493638Y-72462571D01*
X75542019Y-72607714D01*
X75542019Y-72704476D01*
X75493638Y-72849618D01*
X75396876Y-72946380D01*
X75300114Y-72994761D01*
X75106590Y-73043142D01*
X74961448Y-73043142D01*
X74767924Y-72994761D01*
X74671162Y-72946380D01*
X74574400Y-72849618D01*
X74526019Y-72704476D01*
X74526019Y-72607714D01*
X74574400Y-72462571D01*
X74622781Y-72414190D01*
X75542019Y-71494952D02*
X75542019Y-71978761D01*
X74526019Y-71978761D01*
X75542019Y-70575714D02*
X75058210Y-70914380D01*
X75542019Y-71156285D02*
X74526019Y-71156285D01*
X74526019Y-70769238D01*
X74574400Y-70672476D01*
X74622781Y-70624095D01*
X74719543Y-70575714D01*
X74864686Y-70575714D01*
X74961448Y-70624095D01*
X75009829Y-70672476D01*
X75058210Y-70769238D01*
X75058210Y-71156285D01*
X74350880Y-74397809D02*
X74350880Y-70382190D01*
D12*
X69258000Y-82267500D02*
X69258000Y-82217500D01*
X65108000Y-82267500D02*
X65108000Y-82122500D01*
X65108000Y-77117500D02*
X65108000Y-77262500D01*
X69258000Y-77117500D02*
X69258000Y-77262500D01*
X69258000Y-82267500D02*
X65108000Y-82267500D01*
X69258000Y-77117500D02*
X65108000Y-77117500D01*
X69258000Y-82217500D02*
X70658000Y-82217500D01*
D13*
X81692000Y-68805500D02*
X82392000Y-68805500D01*
X82392000Y-70005500D02*
X81692000Y-70005500D01*
X89248500Y-75727000D02*
X89948500Y-75727000D01*
X89948500Y-76927000D02*
X89248500Y-76927000D01*
X87267500Y-93718000D02*
X87267500Y-92718000D01*
X88627500Y-92718000D02*
X88627500Y-93718000D01*
X93781500Y-94152000D02*
X92781500Y-94152000D01*
X92781500Y-92792000D02*
X93781500Y-92792000D01*
X83801500Y-92654500D02*
X83801500Y-93654500D01*
X82441500Y-93654500D02*
X82441500Y-92654500D01*
X79700500Y-92030000D02*
X80700500Y-92030000D01*
X80700500Y-93390000D02*
X79700500Y-93390000D01*
X87023500Y-92741000D02*
X87023500Y-93441000D01*
X85823500Y-93441000D02*
X85823500Y-92741000D01*
X85499500Y-92804500D02*
X85499500Y-93504500D01*
X84299500Y-93504500D02*
X84299500Y-92804500D01*
X82136500Y-85823500D02*
X82836500Y-85823500D01*
X82836500Y-87023500D02*
X82136500Y-87023500D01*
X74069500Y-89502500D02*
X74069500Y-90202500D01*
X72869500Y-90202500D02*
X72869500Y-89502500D01*
X73311500Y-78006500D02*
X72611500Y-78006500D01*
X72611500Y-76806500D02*
X73311500Y-76806500D01*
X74831500Y-81819000D02*
X74831500Y-82519000D01*
X73631500Y-82519000D02*
X73631500Y-81819000D01*
X82050000Y-87267500D02*
X83050000Y-87267500D01*
X83050000Y-88627500D02*
X82050000Y-88627500D01*
X82050000Y-84156000D02*
X83050000Y-84156000D01*
X83050000Y-85516000D02*
X82050000Y-85516000D01*
X92781500Y-78314000D02*
X93781500Y-78314000D01*
X93781500Y-79674000D02*
X92781500Y-79674000D01*
X86505500Y-87368000D02*
X86505500Y-86368000D01*
X87865500Y-86368000D02*
X87865500Y-87368000D01*
X71265500Y-93718000D02*
X71265500Y-92718000D01*
X72625500Y-92718000D02*
X72625500Y-93718000D01*
X74948500Y-85907500D02*
X74948500Y-84907500D01*
X76308500Y-84907500D02*
X76308500Y-85907500D01*
X71138500Y-87177500D02*
X71138500Y-86177500D01*
X72498500Y-86177500D02*
X72498500Y-87177500D01*
X73070000Y-82240500D02*
X73070000Y-83240500D01*
X71710000Y-83240500D02*
X71710000Y-82240500D01*
D12*
X69258000Y-94015000D02*
X69258000Y-93965000D01*
X65108000Y-94015000D02*
X65108000Y-93870000D01*
X65108000Y-88865000D02*
X65108000Y-89010000D01*
X69258000Y-88865000D02*
X69258000Y-89010000D01*
X69258000Y-94015000D02*
X65108000Y-94015000D01*
X69258000Y-88865000D02*
X65108000Y-88865000D01*
X69258000Y-93965000D02*
X70658000Y-93965000D01*
X69258000Y-88300000D02*
X69258000Y-88250000D01*
X65108000Y-88300000D02*
X65108000Y-88155000D01*
X65108000Y-83150000D02*
X65108000Y-83295000D01*
X69258000Y-83150000D02*
X69258000Y-83295000D01*
X69258000Y-88300000D02*
X65108000Y-88300000D01*
X69258000Y-83150000D02*
X65108000Y-83150000D01*
X69258000Y-88250000D02*
X70658000Y-88250000D01*
D13*
X94329500Y-91896000D02*
X94329500Y-92276000D01*
X94329500Y-87356000D02*
X94329500Y-87936000D01*
X94329500Y-89596000D02*
X94329500Y-90236000D01*
X90709500Y-87356000D02*
X90709500Y-88736000D01*
X90709500Y-91096000D02*
X90709500Y-92276000D01*
X94329500Y-87356000D02*
X90709500Y-87356000D01*
X94329500Y-92276000D02*
X90709500Y-92276000D01*
X92379500Y-89226000D02*
X91249500Y-88106000D01*
X92479500Y-89136000D02*
X91349500Y-88006000D01*
X91069472Y-88742712D02*
G75*
G02X91059500Y-88616000I800028J126712D01*
G01*
X91060052Y-88629950D02*
G75*
G02X91099500Y-88866000I809448J13950D01*
G01*
D12*
X96647000Y-71120000D02*
G75*
G03X96647000Y-71120000I-2667000J0D01*
G01*
X96647000Y-83820000D02*
G75*
G03X96647000Y-83820000I-2667000J0D01*
G01*
X67113162Y-80151219D02*
X67017924Y-80103600D01*
X66922686Y-80008362D01*
X66779829Y-79865505D01*
X66684590Y-79817886D01*
X66589352Y-79817886D01*
X66636971Y-80055981D02*
X66541733Y-80008362D01*
X66446495Y-79913124D01*
X66398876Y-79722648D01*
X66398876Y-79389314D01*
X66446495Y-79198838D01*
X66541733Y-79103600D01*
X66636971Y-79055981D01*
X66827448Y-79055981D01*
X66922686Y-79103600D01*
X67017924Y-79198838D01*
X67065543Y-79389314D01*
X67065543Y-79722648D01*
X67017924Y-79913124D01*
X66922686Y-80008362D01*
X66827448Y-80055981D01*
X66636971Y-80055981D01*
X67398876Y-79055981D02*
X68017924Y-79055981D01*
X67684590Y-79436933D01*
X67827448Y-79436933D01*
X67922686Y-79484552D01*
X67970305Y-79532171D01*
X68017924Y-79627410D01*
X68017924Y-79865505D01*
X67970305Y-79960743D01*
X67922686Y-80008362D01*
X67827448Y-80055981D01*
X67541733Y-80055981D01*
X67446495Y-80008362D01*
X67398876Y-79960743D01*
X78725734Y-69851543D02*
X78678115Y-69899162D01*
X78535258Y-69946781D01*
X78440020Y-69946781D01*
X78297162Y-69899162D01*
X78201924Y-69803924D01*
X78154305Y-69708686D01*
X78106686Y-69518210D01*
X78106686Y-69375352D01*
X78154305Y-69184876D01*
X78201924Y-69089638D01*
X78297162Y-68994400D01*
X78440020Y-68946781D01*
X78535258Y-68946781D01*
X78678115Y-68994400D01*
X78725734Y-69042019D01*
X79582877Y-69280114D02*
X79582877Y-69946781D01*
X79344781Y-68899162D02*
X79106686Y-69613448D01*
X79725734Y-69613448D01*
X92390934Y-76709543D02*
X92343315Y-76757162D01*
X92200458Y-76804781D01*
X92105220Y-76804781D01*
X91962362Y-76757162D01*
X91867124Y-76661924D01*
X91819505Y-76566686D01*
X91771886Y-76376210D01*
X91771886Y-76233352D01*
X91819505Y-76042876D01*
X91867124Y-75947638D01*
X91962362Y-75852400D01*
X92105220Y-75804781D01*
X92200458Y-75804781D01*
X92343315Y-75852400D01*
X92390934Y-75900019D01*
X93295696Y-75804781D02*
X92819505Y-75804781D01*
X92771886Y-76280971D01*
X92819505Y-76233352D01*
X92914743Y-76185733D01*
X93152839Y-76185733D01*
X93248077Y-76233352D01*
X93295696Y-76280971D01*
X93343315Y-76376210D01*
X93343315Y-76614305D01*
X93295696Y-76709543D01*
X93248077Y-76757162D01*
X93152839Y-76804781D01*
X92914743Y-76804781D01*
X92819505Y-76757162D01*
X92771886Y-76709543D01*
X88336381Y-90438266D02*
X87860190Y-90771600D01*
X88336381Y-91009695D02*
X87336381Y-91009695D01*
X87336381Y-90628742D01*
X87384000Y-90533504D01*
X87431619Y-90485885D01*
X87526857Y-90438266D01*
X87669714Y-90438266D01*
X87764952Y-90485885D01*
X87812571Y-90533504D01*
X87860190Y-90628742D01*
X87860190Y-91009695D01*
X87669714Y-89581123D02*
X88336381Y-89581123D01*
X87288762Y-89819219D02*
X88003048Y-90057314D01*
X88003048Y-89438266D01*
X90003334Y-94127581D02*
X89670000Y-93651390D01*
X89431905Y-94127581D02*
X89431905Y-93127581D01*
X89812858Y-93127581D01*
X89908096Y-93175200D01*
X89955715Y-93222819D01*
X90003334Y-93318057D01*
X90003334Y-93460914D01*
X89955715Y-93556152D01*
X89908096Y-93603771D01*
X89812858Y-93651390D01*
X89431905Y-93651390D01*
X90908096Y-93127581D02*
X90431905Y-93127581D01*
X90384286Y-93603771D01*
X90431905Y-93556152D01*
X90527143Y-93508533D01*
X90765239Y-93508533D01*
X90860477Y-93556152D01*
X90908096Y-93603771D01*
X90955715Y-93699010D01*
X90955715Y-93937105D01*
X90908096Y-94032343D01*
X90860477Y-94079962D01*
X90765239Y-94127581D01*
X90527143Y-94127581D01*
X90431905Y-94079962D01*
X90384286Y-94032343D01*
X83611981Y-90336666D02*
X83135790Y-90670000D01*
X83611981Y-90908095D02*
X82611981Y-90908095D01*
X82611981Y-90527142D01*
X82659600Y-90431904D01*
X82707219Y-90384285D01*
X82802457Y-90336666D01*
X82945314Y-90336666D01*
X83040552Y-90384285D01*
X83088171Y-90431904D01*
X83135790Y-90527142D01*
X83135790Y-90908095D01*
X83611981Y-89860476D02*
X83611981Y-89670000D01*
X83564362Y-89574761D01*
X83516743Y-89527142D01*
X83373886Y-89431904D01*
X83183410Y-89384285D01*
X82802457Y-89384285D01*
X82707219Y-89431904D01*
X82659600Y-89479523D01*
X82611981Y-89574761D01*
X82611981Y-89765238D01*
X82659600Y-89860476D01*
X82707219Y-89908095D01*
X82802457Y-89955714D01*
X83040552Y-89955714D01*
X83135790Y-89908095D01*
X83183410Y-89860476D01*
X83231029Y-89765238D01*
X83231029Y-89574761D01*
X83183410Y-89479523D01*
X83135790Y-89431904D01*
X83040552Y-89384285D01*
X79557643Y-94612381D02*
X79224309Y-94136190D01*
X78986214Y-94612381D02*
X78986214Y-93612381D01*
X79367167Y-93612381D01*
X79462405Y-93660000D01*
X79510024Y-93707619D01*
X79557643Y-93802857D01*
X79557643Y-93945714D01*
X79510024Y-94040952D01*
X79462405Y-94088571D01*
X79367167Y-94136190D01*
X78986214Y-94136190D01*
X80510024Y-94612381D02*
X79938595Y-94612381D01*
X80224309Y-94612381D02*
X80224309Y-93612381D01*
X80129071Y-93755238D01*
X80033833Y-93850476D01*
X79938595Y-93898095D01*
X81129071Y-93612381D02*
X81224310Y-93612381D01*
X81319548Y-93660000D01*
X81367167Y-93707619D01*
X81414786Y-93802857D01*
X81462405Y-93993333D01*
X81462405Y-94231429D01*
X81414786Y-94421905D01*
X81367167Y-94517143D01*
X81319548Y-94564762D01*
X81224310Y-94612381D01*
X81129071Y-94612381D01*
X81033833Y-94564762D01*
X80986214Y-94517143D01*
X80938595Y-94421905D01*
X80890976Y-94231429D01*
X80890976Y-93993333D01*
X80938595Y-93802857D01*
X80986214Y-93707619D01*
X81033833Y-93660000D01*
X81129071Y-93612381D01*
X86869543Y-90336666D02*
X86917162Y-90384285D01*
X86964781Y-90527142D01*
X86964781Y-90622380D01*
X86917162Y-90765238D01*
X86821924Y-90860476D01*
X86726686Y-90908095D01*
X86536210Y-90955714D01*
X86393352Y-90955714D01*
X86202876Y-90908095D01*
X86107638Y-90860476D01*
X86012400Y-90765238D01*
X85964781Y-90622380D01*
X85964781Y-90527142D01*
X86012400Y-90384285D01*
X86060019Y-90336666D01*
X85964781Y-89479523D02*
X85964781Y-89670000D01*
X86012400Y-89765238D01*
X86060019Y-89812857D01*
X86202876Y-89908095D01*
X86393352Y-89955714D01*
X86774305Y-89955714D01*
X86869543Y-89908095D01*
X86917162Y-89860476D01*
X86964781Y-89765238D01*
X86964781Y-89574761D01*
X86917162Y-89479523D01*
X86869543Y-89431904D01*
X86774305Y-89384285D01*
X86536210Y-89384285D01*
X86440971Y-89431904D01*
X86393352Y-89479523D01*
X86345733Y-89574761D01*
X86345733Y-89765238D01*
X86393352Y-89860476D01*
X86440971Y-89908095D01*
X86536210Y-89955714D01*
X85345543Y-90438266D02*
X85393162Y-90485885D01*
X85440781Y-90628742D01*
X85440781Y-90723980D01*
X85393162Y-90866838D01*
X85297924Y-90962076D01*
X85202686Y-91009695D01*
X85012210Y-91057314D01*
X84869352Y-91057314D01*
X84678876Y-91009695D01*
X84583638Y-90962076D01*
X84488400Y-90866838D01*
X84440781Y-90723980D01*
X84440781Y-90628742D01*
X84488400Y-90485885D01*
X84536019Y-90438266D01*
X85440781Y-89962076D02*
X85440781Y-89771600D01*
X85393162Y-89676361D01*
X85345543Y-89628742D01*
X85202686Y-89533504D01*
X85012210Y-89485885D01*
X84631257Y-89485885D01*
X84536019Y-89533504D01*
X84488400Y-89581123D01*
X84440781Y-89676361D01*
X84440781Y-89866838D01*
X84488400Y-89962076D01*
X84536019Y-90009695D01*
X84631257Y-90057314D01*
X84869352Y-90057314D01*
X84964590Y-90009695D01*
X85012210Y-89962076D01*
X85059829Y-89866838D01*
X85059829Y-89676361D01*
X85012210Y-89581123D01*
X84964590Y-89533504D01*
X84869352Y-89485885D01*
X78554343Y-86818743D02*
X78506724Y-86866362D01*
X78363867Y-86913981D01*
X78268629Y-86913981D01*
X78125771Y-86866362D01*
X78030533Y-86771124D01*
X77982914Y-86675886D01*
X77935295Y-86485410D01*
X77935295Y-86342552D01*
X77982914Y-86152076D01*
X78030533Y-86056838D01*
X78125771Y-85961600D01*
X78268629Y-85913981D01*
X78363867Y-85913981D01*
X78506724Y-85961600D01*
X78554343Y-86009219D01*
X79506724Y-86913981D02*
X78935295Y-86913981D01*
X79221009Y-86913981D02*
X79221009Y-85913981D01*
X79125771Y-86056838D01*
X79030533Y-86152076D01*
X78935295Y-86199695D01*
X80125771Y-85913981D02*
X80221010Y-85913981D01*
X80316248Y-85961600D01*
X80363867Y-86009219D01*
X80411486Y-86104457D01*
X80459105Y-86294933D01*
X80459105Y-86533029D01*
X80411486Y-86723505D01*
X80363867Y-86818743D01*
X80316248Y-86866362D01*
X80221010Y-86913981D01*
X80125771Y-86913981D01*
X80030533Y-86866362D01*
X79982914Y-86818743D01*
X79935295Y-86723505D01*
X79887676Y-86533029D01*
X79887676Y-86294933D01*
X79935295Y-86104457D01*
X79982914Y-86009219D01*
X80030533Y-85961600D01*
X80125771Y-85913981D01*
X75490343Y-90508057D02*
X75537962Y-90555676D01*
X75585581Y-90698533D01*
X75585581Y-90793771D01*
X75537962Y-90936629D01*
X75442724Y-91031867D01*
X75347486Y-91079486D01*
X75157010Y-91127105D01*
X75014152Y-91127105D01*
X74823676Y-91079486D01*
X74728438Y-91031867D01*
X74633200Y-90936629D01*
X74585581Y-90793771D01*
X74585581Y-90698533D01*
X74633200Y-90555676D01*
X74680819Y-90508057D01*
X75585581Y-89555676D02*
X75585581Y-90127105D01*
X75585581Y-89841391D02*
X74585581Y-89841391D01*
X74728438Y-89936629D01*
X74823676Y-90031867D01*
X74871295Y-90127105D01*
X74918914Y-88698533D02*
X75585581Y-88698533D01*
X74537962Y-88936629D02*
X75252248Y-89174724D01*
X75252248Y-88555676D01*
X72305943Y-76252343D02*
X72258324Y-76299962D01*
X72115467Y-76347581D01*
X72020229Y-76347581D01*
X71877371Y-76299962D01*
X71782133Y-76204724D01*
X71734514Y-76109486D01*
X71686895Y-75919010D01*
X71686895Y-75776152D01*
X71734514Y-75585676D01*
X71782133Y-75490438D01*
X71877371Y-75395200D01*
X72020229Y-75347581D01*
X72115467Y-75347581D01*
X72258324Y-75395200D01*
X72305943Y-75442819D01*
X73258324Y-76347581D02*
X72686895Y-76347581D01*
X72972609Y-76347581D02*
X72972609Y-75347581D01*
X72877371Y-75490438D01*
X72782133Y-75585676D01*
X72686895Y-75633295D01*
X74163086Y-75347581D02*
X73686895Y-75347581D01*
X73639276Y-75823771D01*
X73686895Y-75776152D01*
X73782133Y-75728533D01*
X74020229Y-75728533D01*
X74115467Y-75776152D01*
X74163086Y-75823771D01*
X74210705Y-75919010D01*
X74210705Y-76157105D01*
X74163086Y-76252343D01*
X74115467Y-76299962D01*
X74020229Y-76347581D01*
X73782133Y-76347581D01*
X73686895Y-76299962D01*
X73639276Y-76252343D01*
X76049143Y-81872057D02*
X76096762Y-81919676D01*
X76144381Y-82062533D01*
X76144381Y-82157771D01*
X76096762Y-82300629D01*
X76001524Y-82395867D01*
X75906286Y-82443486D01*
X75715810Y-82491105D01*
X75572952Y-82491105D01*
X75382476Y-82443486D01*
X75287238Y-82395867D01*
X75192000Y-82300629D01*
X75144381Y-82157771D01*
X75144381Y-82062533D01*
X75192000Y-81919676D01*
X75239619Y-81872057D01*
X76144381Y-80919676D02*
X76144381Y-81491105D01*
X76144381Y-81205391D02*
X75144381Y-81205391D01*
X75287238Y-81300629D01*
X75382476Y-81395867D01*
X75430095Y-81491105D01*
X75144381Y-80586343D02*
X75144381Y-79919676D01*
X76144381Y-80348248D01*
X88414267Y-95362781D02*
X88414267Y-96077067D01*
X88366647Y-96219924D01*
X88271409Y-96315162D01*
X88128552Y-96362781D01*
X88033314Y-96362781D01*
X89319029Y-95696114D02*
X89319029Y-96362781D01*
X89080933Y-95315162D02*
X88842838Y-96029448D01*
X89461886Y-96029448D01*
X78605143Y-88387181D02*
X78271809Y-87910990D01*
X78033714Y-88387181D02*
X78033714Y-87387181D01*
X78414667Y-87387181D01*
X78509905Y-87434800D01*
X78557524Y-87482419D01*
X78605143Y-87577657D01*
X78605143Y-87720514D01*
X78557524Y-87815752D01*
X78509905Y-87863371D01*
X78414667Y-87910990D01*
X78033714Y-87910990D01*
X79557524Y-88387181D02*
X78986095Y-88387181D01*
X79271809Y-88387181D02*
X79271809Y-87387181D01*
X79176571Y-87530038D01*
X79081333Y-87625276D01*
X78986095Y-87672895D01*
X80509905Y-88387181D02*
X79938476Y-88387181D01*
X80224190Y-88387181D02*
X80224190Y-87387181D01*
X80128952Y-87530038D01*
X80033714Y-87625276D01*
X79938476Y-87672895D01*
X81856343Y-83764381D02*
X81523009Y-83288190D01*
X81284914Y-83764381D02*
X81284914Y-82764381D01*
X81665867Y-82764381D01*
X81761105Y-82812000D01*
X81808724Y-82859619D01*
X81856343Y-82954857D01*
X81856343Y-83097714D01*
X81808724Y-83192952D01*
X81761105Y-83240571D01*
X81665867Y-83288190D01*
X81284914Y-83288190D01*
X82808724Y-83764381D02*
X82237295Y-83764381D01*
X82523009Y-83764381D02*
X82523009Y-82764381D01*
X82427771Y-82907238D01*
X82332533Y-83002476D01*
X82237295Y-83050095D01*
X83189676Y-82859619D02*
X83237295Y-82812000D01*
X83332533Y-82764381D01*
X83570629Y-82764381D01*
X83665867Y-82812000D01*
X83713486Y-82859619D01*
X83761105Y-82954857D01*
X83761105Y-83050095D01*
X83713486Y-83192952D01*
X83142057Y-83764381D01*
X83761105Y-83764381D01*
X89069943Y-79497181D02*
X88736609Y-79020990D01*
X88498514Y-79497181D02*
X88498514Y-78497181D01*
X88879467Y-78497181D01*
X88974705Y-78544800D01*
X89022324Y-78592419D01*
X89069943Y-78687657D01*
X89069943Y-78830514D01*
X89022324Y-78925752D01*
X88974705Y-78973371D01*
X88879467Y-79020990D01*
X88498514Y-79020990D01*
X90022324Y-79497181D02*
X89450895Y-79497181D01*
X89736609Y-79497181D02*
X89736609Y-78497181D01*
X89641371Y-78640038D01*
X89546133Y-78735276D01*
X89450895Y-78782895D01*
X90927086Y-78497181D02*
X90450895Y-78497181D01*
X90403276Y-78973371D01*
X90450895Y-78925752D01*
X90546133Y-78878133D01*
X90784229Y-78878133D01*
X90879467Y-78925752D01*
X90927086Y-78973371D01*
X90974705Y-79068610D01*
X90974705Y-79306705D01*
X90927086Y-79401943D01*
X90879467Y-79449562D01*
X90784229Y-79497181D01*
X90546133Y-79497181D01*
X90450895Y-79449562D01*
X90403276Y-79401943D01*
X87523581Y-84005657D02*
X87047390Y-84338991D01*
X87523581Y-84577086D02*
X86523581Y-84577086D01*
X86523581Y-84196133D01*
X86571200Y-84100895D01*
X86618819Y-84053276D01*
X86714057Y-84005657D01*
X86856914Y-84005657D01*
X86952152Y-84053276D01*
X86999771Y-84100895D01*
X87047390Y-84196133D01*
X87047390Y-84577086D01*
X87523581Y-83053276D02*
X87523581Y-83624705D01*
X87523581Y-83338991D02*
X86523581Y-83338991D01*
X86666438Y-83434229D01*
X86761676Y-83529467D01*
X86809295Y-83624705D01*
X86523581Y-82196133D02*
X86523581Y-82386610D01*
X86571200Y-82481848D01*
X86618819Y-82529467D01*
X86761676Y-82624705D01*
X86952152Y-82672324D01*
X87333105Y-82672324D01*
X87428343Y-82624705D01*
X87475962Y-82577086D01*
X87523581Y-82481848D01*
X87523581Y-82291371D01*
X87475962Y-82196133D01*
X87428343Y-82148514D01*
X87333105Y-82100895D01*
X87095010Y-82100895D01*
X86999771Y-82148514D01*
X86952152Y-82196133D01*
X86904533Y-82291371D01*
X86904533Y-82481848D01*
X86952152Y-82577086D01*
X86999771Y-82624705D01*
X87095010Y-82672324D01*
X74010781Y-93860857D02*
X73534590Y-94194191D01*
X74010781Y-94432286D02*
X73010781Y-94432286D01*
X73010781Y-94051333D01*
X73058400Y-93956095D01*
X73106019Y-93908476D01*
X73201257Y-93860857D01*
X73344114Y-93860857D01*
X73439352Y-93908476D01*
X73486971Y-93956095D01*
X73534590Y-94051333D01*
X73534590Y-94432286D01*
X74010781Y-92908476D02*
X74010781Y-93479905D01*
X74010781Y-93194191D02*
X73010781Y-93194191D01*
X73153638Y-93289429D01*
X73248876Y-93384667D01*
X73296495Y-93479905D01*
X73010781Y-92575143D02*
X73010781Y-91908476D01*
X74010781Y-92337048D01*
X77530881Y-86050357D02*
X77054690Y-86383691D01*
X77530881Y-86621786D02*
X76530881Y-86621786D01*
X76530881Y-86240833D01*
X76578500Y-86145595D01*
X76626119Y-86097976D01*
X76721357Y-86050357D01*
X76864214Y-86050357D01*
X76959452Y-86097976D01*
X77007071Y-86145595D01*
X77054690Y-86240833D01*
X77054690Y-86621786D01*
X76626119Y-85669405D02*
X76578500Y-85621786D01*
X76530881Y-85526548D01*
X76530881Y-85288452D01*
X76578500Y-85193214D01*
X76626119Y-85145595D01*
X76721357Y-85097976D01*
X76816595Y-85097976D01*
X76959452Y-85145595D01*
X77530881Y-85717024D01*
X77530881Y-85097976D01*
X77530881Y-84145595D02*
X77530881Y-84717024D01*
X77530881Y-84431310D02*
X76530881Y-84431310D01*
X76673738Y-84526548D01*
X76768976Y-84621786D01*
X76816595Y-84717024D01*
X74010781Y-87104457D02*
X73534590Y-87437791D01*
X74010781Y-87675886D02*
X73010781Y-87675886D01*
X73010781Y-87294933D01*
X73058400Y-87199695D01*
X73106019Y-87152076D01*
X73201257Y-87104457D01*
X73344114Y-87104457D01*
X73439352Y-87152076D01*
X73486971Y-87199695D01*
X73534590Y-87294933D01*
X73534590Y-87675886D01*
X73106019Y-86723505D02*
X73058400Y-86675886D01*
X73010781Y-86580648D01*
X73010781Y-86342552D01*
X73058400Y-86247314D01*
X73106019Y-86199695D01*
X73201257Y-86152076D01*
X73296495Y-86152076D01*
X73439352Y-86199695D01*
X74010781Y-86771124D01*
X74010781Y-86152076D01*
X73106019Y-85771124D02*
X73058400Y-85723505D01*
X73010781Y-85628267D01*
X73010781Y-85390171D01*
X73058400Y-85294933D01*
X73106019Y-85247314D01*
X73201257Y-85199695D01*
X73296495Y-85199695D01*
X73439352Y-85247314D01*
X74010781Y-85818743D01*
X74010781Y-85199695D01*
X72893181Y-80043257D02*
X72416990Y-80376591D01*
X72893181Y-80614686D02*
X71893181Y-80614686D01*
X71893181Y-80233733D01*
X71940800Y-80138495D01*
X71988419Y-80090876D01*
X72083657Y-80043257D01*
X72226514Y-80043257D01*
X72321752Y-80090876D01*
X72369371Y-80138495D01*
X72416990Y-80233733D01*
X72416990Y-80614686D01*
X71988419Y-79662305D02*
X71940800Y-79614686D01*
X71893181Y-79519448D01*
X71893181Y-79281352D01*
X71940800Y-79186114D01*
X71988419Y-79138495D01*
X72083657Y-79090876D01*
X72178895Y-79090876D01*
X72321752Y-79138495D01*
X72893181Y-79709924D01*
X72893181Y-79090876D01*
X71893181Y-78757543D02*
X71893181Y-78138495D01*
X72274133Y-78471829D01*
X72274133Y-78328971D01*
X72321752Y-78233733D01*
X72369371Y-78186114D01*
X72464610Y-78138495D01*
X72702705Y-78138495D01*
X72797943Y-78186114D01*
X72845562Y-78233733D01*
X72893181Y-78328971D01*
X72893181Y-78614686D01*
X72845562Y-78709924D01*
X72797943Y-78757543D01*
X67163962Y-92038419D02*
X67068724Y-91990800D01*
X66973486Y-91895562D01*
X66830629Y-91752705D01*
X66735390Y-91705086D01*
X66640152Y-91705086D01*
X66687771Y-91943181D02*
X66592533Y-91895562D01*
X66497295Y-91800324D01*
X66449676Y-91609848D01*
X66449676Y-91276514D01*
X66497295Y-91086038D01*
X66592533Y-90990800D01*
X66687771Y-90943181D01*
X66878248Y-90943181D01*
X66973486Y-90990800D01*
X67068724Y-91086038D01*
X67116343Y-91276514D01*
X67116343Y-91609848D01*
X67068724Y-91800324D01*
X66973486Y-91895562D01*
X66878248Y-91943181D01*
X66687771Y-91943181D01*
X67497295Y-91038419D02*
X67544914Y-90990800D01*
X67640152Y-90943181D01*
X67878248Y-90943181D01*
X67973486Y-90990800D01*
X68021105Y-91038419D01*
X68068724Y-91133657D01*
X68068724Y-91228895D01*
X68021105Y-91371752D01*
X67449676Y-91943181D01*
X68068724Y-91943181D01*
X67214762Y-86450419D02*
X67119524Y-86402800D01*
X67024286Y-86307562D01*
X66881429Y-86164705D01*
X66786190Y-86117086D01*
X66690952Y-86117086D01*
X66738571Y-86355181D02*
X66643333Y-86307562D01*
X66548095Y-86212324D01*
X66500476Y-86021848D01*
X66500476Y-85688514D01*
X66548095Y-85498038D01*
X66643333Y-85402800D01*
X66738571Y-85355181D01*
X66929048Y-85355181D01*
X67024286Y-85402800D01*
X67119524Y-85498038D01*
X67167143Y-85688514D01*
X67167143Y-86021848D01*
X67119524Y-86212324D01*
X67024286Y-86307562D01*
X66929048Y-86355181D01*
X66738571Y-86355181D01*
X68024286Y-85688514D02*
X68024286Y-86355181D01*
X67786190Y-85307562D02*
X67548095Y-86021848D01*
X68167143Y-86021848D01*
X92603581Y-91162095D02*
X91603581Y-91162095D01*
X91603581Y-90781142D01*
X91651200Y-90685904D01*
X91698819Y-90638285D01*
X91794057Y-90590666D01*
X91936914Y-90590666D01*
X92032152Y-90638285D01*
X92079771Y-90685904D01*
X92127390Y-90781142D01*
X92127390Y-91162095D01*
X92603581Y-89638285D02*
X92603581Y-90209714D01*
X92603581Y-89924000D02*
X91603581Y-89924000D01*
X91746438Y-90019238D01*
X91841676Y-90114476D01*
X91889295Y-90209714D01*
X82318267Y-74941181D02*
X82318267Y-75655467D01*
X82270647Y-75798324D01*
X82175409Y-75893562D01*
X82032552Y-75941181D01*
X81937314Y-75941181D01*
X83318267Y-75941181D02*
X82746838Y-75941181D01*
X83032552Y-75941181D02*
X83032552Y-74941181D01*
X82937314Y-75084038D01*
X82842076Y-75179276D01*
X82746838Y-75226895D01*
X56043581Y-73282133D02*
X56757867Y-73282133D01*
X56900724Y-73329753D01*
X56995962Y-73424991D01*
X57043581Y-73567848D01*
X57043581Y-73663086D01*
X56138819Y-72853562D02*
X56091200Y-72805943D01*
X56043581Y-72710705D01*
X56043581Y-72472609D01*
X56091200Y-72377371D01*
X56138819Y-72329752D01*
X56234057Y-72282133D01*
X56329295Y-72282133D01*
X56472152Y-72329752D01*
X57043581Y-72901181D01*
X57043581Y-72282133D01*
X55687981Y-86540933D02*
X56402267Y-86540933D01*
X56545124Y-86588553D01*
X56640362Y-86683791D01*
X56687981Y-86826648D01*
X56687981Y-86921886D01*
X55687981Y-86159981D02*
X55687981Y-85540933D01*
X56068933Y-85874267D01*
X56068933Y-85731409D01*
X56116552Y-85636171D01*
X56164171Y-85588552D01*
X56259410Y-85540933D01*
X56497505Y-85540933D01*
X56592743Y-85588552D01*
X56640362Y-85636171D01*
X56687981Y-85731409D01*
X56687981Y-86017124D01*
X56640362Y-86112362D01*
X56592743Y-86159981D01*
M02*
