G04 #@! TF.FileFunction,Legend,Bot*
%FSLAX46Y46*%
G04 Gerber Fmt 4.6, Leading zero omitted, Abs format (unit mm)*
G04 Created by KiCad (PCBNEW 4.0.7) date 05/27/18 15:14:11*
%MOMM*%
%LPD*%
G01*
G04 APERTURE LIST*
%ADD10C,0.100000*%
%ADD11C,0.120000*%
%ADD12C,0.150000*%
G04 APERTURE END LIST*
D10*
D11*
X62385500Y-91599500D02*
X62385500Y-90899500D01*
X61185500Y-90899500D02*
X61185500Y-91599500D01*
X62322000Y-86900500D02*
X62322000Y-86200500D01*
X61122000Y-86200500D02*
X61122000Y-86900500D01*
X56734000Y-91980500D02*
X56734000Y-91280500D01*
X55534000Y-91280500D02*
X55534000Y-91980500D01*
X64497500Y-89336500D02*
X64497500Y-88336500D01*
X63137500Y-88336500D02*
X63137500Y-89336500D01*
X62465500Y-82923000D02*
X62465500Y-81923000D01*
X61105500Y-81923000D02*
X61105500Y-82923000D01*
X56814000Y-82923000D02*
X56814000Y-81923000D01*
X55454000Y-81923000D02*
X55454000Y-82923000D01*
X82441500Y-92654500D02*
X82441500Y-93654500D01*
X83801500Y-93654500D02*
X83801500Y-92654500D01*
X79637000Y-93326500D02*
X80637000Y-93326500D01*
X80637000Y-91966500D02*
X79637000Y-91966500D01*
D12*
X88203000Y-77689500D02*
X88203000Y-77939500D01*
X80453000Y-77689500D02*
X80453000Y-78024500D01*
X80453000Y-90839500D02*
X80453000Y-90504500D01*
X88203000Y-90839500D02*
X88203000Y-90504500D01*
X88203000Y-77689500D02*
X80453000Y-77689500D01*
X88203000Y-90839500D02*
X80453000Y-90839500D01*
X88203000Y-77939500D02*
X90003000Y-77939500D01*
D11*
X84299500Y-92804500D02*
X84299500Y-93504500D01*
X85499500Y-93504500D02*
X85499500Y-92804500D01*
X63084000Y-73311500D02*
X63084000Y-72611500D01*
X61884000Y-72611500D02*
X61884000Y-73311500D01*
X65370000Y-73248000D02*
X65370000Y-72548000D01*
X64170000Y-72548000D02*
X64170000Y-73248000D01*
X76198500Y-89057000D02*
X75058500Y-89057000D01*
X75058500Y-89057000D02*
X75058500Y-86957000D01*
X76198500Y-89057000D02*
X76198500Y-86957000D01*
X75249000Y-77249500D02*
X76389000Y-77249500D01*
X76389000Y-77249500D02*
X76389000Y-79349500D01*
X75249000Y-77249500D02*
X75249000Y-79349500D01*
X76389000Y-83342000D02*
X75249000Y-83342000D01*
X75249000Y-83342000D02*
X75249000Y-81242000D01*
X76389000Y-83342000D02*
X76389000Y-81242000D01*
X64852000Y-81415000D02*
X64852000Y-82415000D01*
X66212000Y-82415000D02*
X66212000Y-81415000D01*
X65741000Y-88463500D02*
X65741000Y-89463500D01*
X67101000Y-89463500D02*
X67101000Y-88463500D01*
X68651500Y-76372000D02*
X69651500Y-76372000D01*
X69651500Y-75012000D02*
X68651500Y-75012000D01*
D12*
X73004500Y-88103000D02*
X73004500Y-88153000D01*
X68854500Y-88103000D02*
X68854500Y-88248000D01*
X68854500Y-93253000D02*
X68854500Y-93108000D01*
X73004500Y-93253000D02*
X73004500Y-93108000D01*
X73004500Y-88103000D02*
X68854500Y-88103000D01*
X73004500Y-93253000D02*
X68854500Y-93253000D01*
X73004500Y-88153000D02*
X74404500Y-88153000D01*
X73004500Y-76673000D02*
X73004500Y-76723000D01*
X68854500Y-76673000D02*
X68854500Y-76818000D01*
X68854500Y-81823000D02*
X68854500Y-81678000D01*
X73004500Y-81823000D02*
X73004500Y-81678000D01*
X73004500Y-76673000D02*
X68854500Y-76673000D01*
X73004500Y-81823000D02*
X68854500Y-81823000D01*
X73004500Y-76723000D02*
X74404500Y-76723000D01*
X73004500Y-82388000D02*
X73004500Y-82438000D01*
X68854500Y-82388000D02*
X68854500Y-82533000D01*
X68854500Y-87538000D02*
X68854500Y-87393000D01*
X73004500Y-87538000D02*
X73004500Y-87393000D01*
X73004500Y-82388000D02*
X68854500Y-82388000D01*
X73004500Y-87538000D02*
X68854500Y-87538000D01*
X73004500Y-82438000D02*
X74404500Y-82438000D01*
X62129943Y-93965734D02*
X62177562Y-93918115D01*
X62225181Y-93775258D01*
X62225181Y-93680020D01*
X62177562Y-93537162D01*
X62082324Y-93441924D01*
X61987086Y-93394305D01*
X61796610Y-93346686D01*
X61653752Y-93346686D01*
X61463276Y-93394305D01*
X61368038Y-93441924D01*
X61272800Y-93537162D01*
X61225181Y-93680020D01*
X61225181Y-93775258D01*
X61272800Y-93918115D01*
X61320419Y-93965734D01*
X62225181Y-94918115D02*
X62225181Y-94346686D01*
X62225181Y-94632400D02*
X61225181Y-94632400D01*
X61368038Y-94537162D01*
X61463276Y-94441924D01*
X61510895Y-94346686D01*
X63603143Y-85634534D02*
X63650762Y-85586915D01*
X63698381Y-85444058D01*
X63698381Y-85348820D01*
X63650762Y-85205962D01*
X63555524Y-85110724D01*
X63460286Y-85063105D01*
X63269810Y-85015486D01*
X63126952Y-85015486D01*
X62936476Y-85063105D01*
X62841238Y-85110724D01*
X62746000Y-85205962D01*
X62698381Y-85348820D01*
X62698381Y-85444058D01*
X62746000Y-85586915D01*
X62793619Y-85634534D01*
X62793619Y-86015486D02*
X62746000Y-86063105D01*
X62698381Y-86158343D01*
X62698381Y-86396439D01*
X62746000Y-86491677D01*
X62793619Y-86539296D01*
X62888857Y-86586915D01*
X62984095Y-86586915D01*
X63126952Y-86539296D01*
X63698381Y-85967867D01*
X63698381Y-86586915D01*
X56491143Y-88479334D02*
X56538762Y-88431715D01*
X56586381Y-88288858D01*
X56586381Y-88193620D01*
X56538762Y-88050762D01*
X56443524Y-87955524D01*
X56348286Y-87907905D01*
X56157810Y-87860286D01*
X56014952Y-87860286D01*
X55824476Y-87907905D01*
X55729238Y-87955524D01*
X55634000Y-88050762D01*
X55586381Y-88193620D01*
X55586381Y-88288858D01*
X55634000Y-88431715D01*
X55681619Y-88479334D01*
X55586381Y-88812667D02*
X55586381Y-89431715D01*
X55967333Y-89098381D01*
X55967333Y-89241239D01*
X56014952Y-89336477D01*
X56062571Y-89384096D01*
X56157810Y-89431715D01*
X56395905Y-89431715D01*
X56491143Y-89384096D01*
X56538762Y-89336477D01*
X56586381Y-89241239D01*
X56586381Y-88955524D01*
X56538762Y-88860286D01*
X56491143Y-88812667D01*
X64460381Y-91781334D02*
X63984190Y-91448000D01*
X64460381Y-91209905D02*
X63460381Y-91209905D01*
X63460381Y-91590858D01*
X63508000Y-91686096D01*
X63555619Y-91733715D01*
X63650857Y-91781334D01*
X63793714Y-91781334D01*
X63888952Y-91733715D01*
X63936571Y-91686096D01*
X63984190Y-91590858D01*
X63984190Y-91209905D01*
X64460381Y-92733715D02*
X64460381Y-92162286D01*
X64460381Y-92448000D02*
X63460381Y-92448000D01*
X63603238Y-92352762D01*
X63698476Y-92257524D01*
X63746095Y-92162286D01*
X63799981Y-83094534D02*
X63323790Y-82761200D01*
X63799981Y-82523105D02*
X62799981Y-82523105D01*
X62799981Y-82904058D01*
X62847600Y-82999296D01*
X62895219Y-83046915D01*
X62990457Y-83094534D01*
X63133314Y-83094534D01*
X63228552Y-83046915D01*
X63276171Y-82999296D01*
X63323790Y-82904058D01*
X63323790Y-82523105D01*
X62895219Y-83475486D02*
X62847600Y-83523105D01*
X62799981Y-83618343D01*
X62799981Y-83856439D01*
X62847600Y-83951677D01*
X62895219Y-83999296D01*
X62990457Y-84046915D01*
X63085695Y-84046915D01*
X63228552Y-83999296D01*
X63799981Y-83427867D01*
X63799981Y-84046915D01*
X56687981Y-79081334D02*
X56211790Y-78748000D01*
X56687981Y-78509905D02*
X55687981Y-78509905D01*
X55687981Y-78890858D01*
X55735600Y-78986096D01*
X55783219Y-79033715D01*
X55878457Y-79081334D01*
X56021314Y-79081334D01*
X56116552Y-79033715D01*
X56164171Y-78986096D01*
X56211790Y-78890858D01*
X56211790Y-78509905D01*
X55687981Y-79414667D02*
X55687981Y-80033715D01*
X56068933Y-79700381D01*
X56068933Y-79843239D01*
X56116552Y-79938477D01*
X56164171Y-79986096D01*
X56259410Y-80033715D01*
X56497505Y-80033715D01*
X56592743Y-79986096D01*
X56640362Y-79938477D01*
X56687981Y-79843239D01*
X56687981Y-79557524D01*
X56640362Y-79462286D01*
X56592743Y-79414667D01*
X83123066Y-96413581D02*
X83456400Y-95937390D01*
X83694495Y-96413581D02*
X83694495Y-95413581D01*
X83313542Y-95413581D01*
X83218304Y-95461200D01*
X83170685Y-95508819D01*
X83123066Y-95604057D01*
X83123066Y-95746914D01*
X83170685Y-95842152D01*
X83218304Y-95889771D01*
X83313542Y-95937390D01*
X83694495Y-95937390D01*
X82265923Y-95413581D02*
X82456400Y-95413581D01*
X82551638Y-95461200D01*
X82599257Y-95508819D01*
X82694495Y-95651676D01*
X82742114Y-95842152D01*
X82742114Y-96223105D01*
X82694495Y-96318343D01*
X82646876Y-96365962D01*
X82551638Y-96413581D01*
X82361161Y-96413581D01*
X82265923Y-96365962D01*
X82218304Y-96318343D01*
X82170685Y-96223105D01*
X82170685Y-95985010D01*
X82218304Y-95889771D01*
X82265923Y-95842152D01*
X82361161Y-95794533D01*
X82551638Y-95794533D01*
X82646876Y-95842152D01*
X82694495Y-95889771D01*
X82742114Y-95985010D01*
X80227466Y-94737181D02*
X80560800Y-94260990D01*
X80798895Y-94737181D02*
X80798895Y-93737181D01*
X80417942Y-93737181D01*
X80322704Y-93784800D01*
X80275085Y-93832419D01*
X80227466Y-93927657D01*
X80227466Y-94070514D01*
X80275085Y-94165752D01*
X80322704Y-94213371D01*
X80417942Y-94260990D01*
X80798895Y-94260990D01*
X79656038Y-94165752D02*
X79751276Y-94118133D01*
X79798895Y-94070514D01*
X79846514Y-93975276D01*
X79846514Y-93927657D01*
X79798895Y-93832419D01*
X79751276Y-93784800D01*
X79656038Y-93737181D01*
X79465561Y-93737181D01*
X79370323Y-93784800D01*
X79322704Y-93832419D01*
X79275085Y-93927657D01*
X79275085Y-93975276D01*
X79322704Y-94070514D01*
X79370323Y-94118133D01*
X79465561Y-94165752D01*
X79656038Y-94165752D01*
X79751276Y-94213371D01*
X79798895Y-94260990D01*
X79846514Y-94356229D01*
X79846514Y-94546705D01*
X79798895Y-94641943D01*
X79751276Y-94689562D01*
X79656038Y-94737181D01*
X79465561Y-94737181D01*
X79370323Y-94689562D01*
X79322704Y-94641943D01*
X79275085Y-94546705D01*
X79275085Y-94356229D01*
X79322704Y-94260990D01*
X79370323Y-94213371D01*
X79465561Y-94165752D01*
X85089905Y-76216881D02*
X85089905Y-77026405D01*
X85042286Y-77121643D01*
X84994667Y-77169262D01*
X84899429Y-77216881D01*
X84708952Y-77216881D01*
X84613714Y-77169262D01*
X84566095Y-77121643D01*
X84518476Y-77026405D01*
X84518476Y-76216881D01*
X83518476Y-77216881D02*
X84089905Y-77216881D01*
X83804191Y-77216881D02*
X83804191Y-76216881D01*
X83899429Y-76359738D01*
X83994667Y-76454976D01*
X84089905Y-76502595D01*
X85155066Y-96267543D02*
X85202685Y-96315162D01*
X85345542Y-96362781D01*
X85440780Y-96362781D01*
X85583638Y-96315162D01*
X85678876Y-96219924D01*
X85726495Y-96124686D01*
X85774114Y-95934210D01*
X85774114Y-95791352D01*
X85726495Y-95600876D01*
X85678876Y-95505638D01*
X85583638Y-95410400D01*
X85440780Y-95362781D01*
X85345542Y-95362781D01*
X85202685Y-95410400D01*
X85155066Y-95458019D01*
X84583638Y-95791352D02*
X84678876Y-95743733D01*
X84726495Y-95696114D01*
X84774114Y-95600876D01*
X84774114Y-95553257D01*
X84726495Y-95458019D01*
X84678876Y-95410400D01*
X84583638Y-95362781D01*
X84393161Y-95362781D01*
X84297923Y-95410400D01*
X84250304Y-95458019D01*
X84202685Y-95553257D01*
X84202685Y-95600876D01*
X84250304Y-95696114D01*
X84297923Y-95743733D01*
X84393161Y-95791352D01*
X84583638Y-95791352D01*
X84678876Y-95838971D01*
X84726495Y-95886590D01*
X84774114Y-95981829D01*
X84774114Y-96172305D01*
X84726495Y-96267543D01*
X84678876Y-96315162D01*
X84583638Y-96362781D01*
X84393161Y-96362781D01*
X84297923Y-96315162D01*
X84250304Y-96267543D01*
X84202685Y-96172305D01*
X84202685Y-95981829D01*
X84250304Y-95886590D01*
X84297923Y-95838971D01*
X84393161Y-95791352D01*
X62841143Y-75811143D02*
X62888762Y-75763524D01*
X62936381Y-75620667D01*
X62936381Y-75525429D01*
X62888762Y-75382571D01*
X62793524Y-75287333D01*
X62698286Y-75239714D01*
X62507810Y-75192095D01*
X62364952Y-75192095D01*
X62174476Y-75239714D01*
X62079238Y-75287333D01*
X61984000Y-75382571D01*
X61936381Y-75525429D01*
X61936381Y-75620667D01*
X61984000Y-75763524D01*
X62031619Y-75811143D01*
X62936381Y-76763524D02*
X62936381Y-76192095D01*
X62936381Y-76477809D02*
X61936381Y-76477809D01*
X62079238Y-76382571D01*
X62174476Y-76287333D01*
X62222095Y-76192095D01*
X62031619Y-77144476D02*
X61984000Y-77192095D01*
X61936381Y-77287333D01*
X61936381Y-77525429D01*
X61984000Y-77620667D01*
X62031619Y-77668286D01*
X62126857Y-77715905D01*
X62222095Y-77715905D01*
X62364952Y-77668286D01*
X62936381Y-77096857D01*
X62936381Y-77715905D01*
X65228743Y-75811143D02*
X65276362Y-75763524D01*
X65323981Y-75620667D01*
X65323981Y-75525429D01*
X65276362Y-75382571D01*
X65181124Y-75287333D01*
X65085886Y-75239714D01*
X64895410Y-75192095D01*
X64752552Y-75192095D01*
X64562076Y-75239714D01*
X64466838Y-75287333D01*
X64371600Y-75382571D01*
X64323981Y-75525429D01*
X64323981Y-75620667D01*
X64371600Y-75763524D01*
X64419219Y-75811143D01*
X65323981Y-76763524D02*
X65323981Y-76192095D01*
X65323981Y-76477809D02*
X64323981Y-76477809D01*
X64466838Y-76382571D01*
X64562076Y-76287333D01*
X64609695Y-76192095D01*
X64323981Y-77096857D02*
X64323981Y-77715905D01*
X64704933Y-77382571D01*
X64704933Y-77525429D01*
X64752552Y-77620667D01*
X64800171Y-77668286D01*
X64895410Y-77715905D01*
X65133505Y-77715905D01*
X65228743Y-77668286D01*
X65276362Y-77620667D01*
X65323981Y-77525429D01*
X65323981Y-77239714D01*
X65276362Y-77144476D01*
X65228743Y-77096857D01*
X77480881Y-87018905D02*
X76480881Y-87018905D01*
X76480881Y-87257000D01*
X76528500Y-87399858D01*
X76623738Y-87495096D01*
X76718976Y-87542715D01*
X76909452Y-87590334D01*
X77052310Y-87590334D01*
X77242786Y-87542715D01*
X77338024Y-87495096D01*
X77433262Y-87399858D01*
X77480881Y-87257000D01*
X77480881Y-87018905D01*
X76576119Y-87971286D02*
X76528500Y-88018905D01*
X76480881Y-88114143D01*
X76480881Y-88352239D01*
X76528500Y-88447477D01*
X76576119Y-88495096D01*
X76671357Y-88542715D01*
X76766595Y-88542715D01*
X76909452Y-88495096D01*
X77480881Y-87923667D01*
X77480881Y-88542715D01*
X74871381Y-77811405D02*
X73871381Y-77811405D01*
X73871381Y-78049500D01*
X73919000Y-78192358D01*
X74014238Y-78287596D01*
X74109476Y-78335215D01*
X74299952Y-78382834D01*
X74442810Y-78382834D01*
X74633286Y-78335215D01*
X74728524Y-78287596D01*
X74823762Y-78192358D01*
X74871381Y-78049500D01*
X74871381Y-77811405D01*
X73871381Y-78716167D02*
X73871381Y-79335215D01*
X74252333Y-79001881D01*
X74252333Y-79144739D01*
X74299952Y-79239977D01*
X74347571Y-79287596D01*
X74442810Y-79335215D01*
X74680905Y-79335215D01*
X74776143Y-79287596D01*
X74823762Y-79239977D01*
X74871381Y-79144739D01*
X74871381Y-78859024D01*
X74823762Y-78763786D01*
X74776143Y-78716167D01*
X77671381Y-81303905D02*
X76671381Y-81303905D01*
X76671381Y-81542000D01*
X76719000Y-81684858D01*
X76814238Y-81780096D01*
X76909476Y-81827715D01*
X77099952Y-81875334D01*
X77242810Y-81875334D01*
X77433286Y-81827715D01*
X77528524Y-81780096D01*
X77623762Y-81684858D01*
X77671381Y-81542000D01*
X77671381Y-81303905D01*
X77004714Y-82732477D02*
X77671381Y-82732477D01*
X76623762Y-82494381D02*
X77338048Y-82256286D01*
X77338048Y-82875334D01*
X64765181Y-80230743D02*
X64288990Y-79897409D01*
X64765181Y-79659314D02*
X63765181Y-79659314D01*
X63765181Y-80040267D01*
X63812800Y-80135505D01*
X63860419Y-80183124D01*
X63955657Y-80230743D01*
X64098514Y-80230743D01*
X64193752Y-80183124D01*
X64241371Y-80135505D01*
X64288990Y-80040267D01*
X64288990Y-79659314D01*
X64765181Y-81183124D02*
X64765181Y-80611695D01*
X64765181Y-80897409D02*
X63765181Y-80897409D01*
X63908038Y-80802171D01*
X64003276Y-80706933D01*
X64050895Y-80611695D01*
X64193752Y-81754552D02*
X64146133Y-81659314D01*
X64098514Y-81611695D01*
X64003276Y-81564076D01*
X63955657Y-81564076D01*
X63860419Y-81611695D01*
X63812800Y-81659314D01*
X63765181Y-81754552D01*
X63765181Y-81945029D01*
X63812800Y-82040267D01*
X63860419Y-82087886D01*
X63955657Y-82135505D01*
X64003276Y-82135505D01*
X64098514Y-82087886D01*
X64146133Y-82040267D01*
X64193752Y-81945029D01*
X64193752Y-81754552D01*
X64241371Y-81659314D01*
X64288990Y-81611695D01*
X64384229Y-81564076D01*
X64574705Y-81564076D01*
X64669943Y-81611695D01*
X64717562Y-81659314D01*
X64765181Y-81754552D01*
X64765181Y-81945029D01*
X64717562Y-82040267D01*
X64669943Y-82087886D01*
X64574705Y-82135505D01*
X64384229Y-82135505D01*
X64288990Y-82087886D01*
X64241371Y-82040267D01*
X64193752Y-81945029D01*
X66797181Y-91762343D02*
X66320990Y-91429009D01*
X66797181Y-91190914D02*
X65797181Y-91190914D01*
X65797181Y-91571867D01*
X65844800Y-91667105D01*
X65892419Y-91714724D01*
X65987657Y-91762343D01*
X66130514Y-91762343D01*
X66225752Y-91714724D01*
X66273371Y-91667105D01*
X66320990Y-91571867D01*
X66320990Y-91190914D01*
X66797181Y-92714724D02*
X66797181Y-92143295D01*
X66797181Y-92429009D02*
X65797181Y-92429009D01*
X65940038Y-92333771D01*
X66035276Y-92238533D01*
X66082895Y-92143295D01*
X66797181Y-93190914D02*
X66797181Y-93381390D01*
X66749562Y-93476629D01*
X66701943Y-93524248D01*
X66559086Y-93619486D01*
X66368610Y-93667105D01*
X65987657Y-93667105D01*
X65892419Y-93619486D01*
X65844800Y-93571867D01*
X65797181Y-93476629D01*
X65797181Y-93286152D01*
X65844800Y-93190914D01*
X65892419Y-93143295D01*
X65987657Y-93095676D01*
X66225752Y-93095676D01*
X66320990Y-93143295D01*
X66368610Y-93190914D01*
X66416229Y-93286152D01*
X66416229Y-93476629D01*
X66368610Y-93571867D01*
X66320990Y-93619486D01*
X66225752Y-93667105D01*
X69794357Y-74694381D02*
X70127691Y-74218190D01*
X70365786Y-74694381D02*
X70365786Y-73694381D01*
X69984833Y-73694381D01*
X69889595Y-73742000D01*
X69841976Y-73789619D01*
X69794357Y-73884857D01*
X69794357Y-74027714D01*
X69841976Y-74122952D01*
X69889595Y-74170571D01*
X69984833Y-74218190D01*
X70365786Y-74218190D01*
X69413405Y-73789619D02*
X69365786Y-73742000D01*
X69270548Y-73694381D01*
X69032452Y-73694381D01*
X68937214Y-73742000D01*
X68889595Y-73789619D01*
X68841976Y-73884857D01*
X68841976Y-73980095D01*
X68889595Y-74122952D01*
X69461024Y-74694381D01*
X68841976Y-74694381D01*
X68222929Y-73694381D02*
X68127690Y-73694381D01*
X68032452Y-73742000D01*
X67984833Y-73789619D01*
X67937214Y-73884857D01*
X67889595Y-74075333D01*
X67889595Y-74313429D01*
X67937214Y-74503905D01*
X67984833Y-74599143D01*
X68032452Y-74646762D01*
X68127690Y-74694381D01*
X68222929Y-74694381D01*
X68318167Y-74646762D01*
X68365786Y-74599143D01*
X68413405Y-74503905D01*
X68461024Y-74313429D01*
X68461024Y-74075333D01*
X68413405Y-73884857D01*
X68365786Y-73789619D01*
X68318167Y-73742000D01*
X68222929Y-73694381D01*
X71678705Y-90384381D02*
X71678705Y-91193905D01*
X71631086Y-91289143D01*
X71583467Y-91336762D01*
X71488229Y-91384381D01*
X71297752Y-91384381D01*
X71202514Y-91336762D01*
X71154895Y-91289143D01*
X71107276Y-91193905D01*
X71107276Y-90384381D01*
X70726324Y-90384381D02*
X70107276Y-90384381D01*
X70440610Y-90765333D01*
X70297752Y-90765333D01*
X70202514Y-90812952D01*
X70154895Y-90860571D01*
X70107276Y-90955810D01*
X70107276Y-91193905D01*
X70154895Y-91289143D01*
X70202514Y-91336762D01*
X70297752Y-91384381D01*
X70583467Y-91384381D01*
X70678705Y-91336762D01*
X70726324Y-91289143D01*
X71729505Y-78954381D02*
X71729505Y-79763905D01*
X71681886Y-79859143D01*
X71634267Y-79906762D01*
X71539029Y-79954381D01*
X71348552Y-79954381D01*
X71253314Y-79906762D01*
X71205695Y-79859143D01*
X71158076Y-79763905D01*
X71158076Y-78954381D01*
X70253314Y-79287714D02*
X70253314Y-79954381D01*
X70491410Y-78906762D02*
X70729505Y-79621048D01*
X70110457Y-79621048D01*
X71831105Y-84288381D02*
X71831105Y-85097905D01*
X71783486Y-85193143D01*
X71735867Y-85240762D01*
X71640629Y-85288381D01*
X71450152Y-85288381D01*
X71354914Y-85240762D01*
X71307295Y-85193143D01*
X71259676Y-85097905D01*
X71259676Y-84288381D01*
X70307295Y-84288381D02*
X70783486Y-84288381D01*
X70831105Y-84764571D01*
X70783486Y-84716952D01*
X70688248Y-84669333D01*
X70450152Y-84669333D01*
X70354914Y-84716952D01*
X70307295Y-84764571D01*
X70259676Y-84859810D01*
X70259676Y-85097905D01*
X70307295Y-85193143D01*
X70354914Y-85240762D01*
X70450152Y-85288381D01*
X70688248Y-85288381D01*
X70783486Y-85240762D01*
X70831105Y-85193143D01*
M02*
