G04 #@! TF.FileFunction,Paste,Bot*
%FSLAX46Y46*%
G04 Gerber Fmt 4.6, Leading zero omitted, Abs format (unit mm)*
G04 Created by KiCad (PCBNEW 4.0.7) date 05/27/18 15:14:11*
%MOMM*%
%LPD*%
G01*
G04 APERTURE LIST*
%ADD10C,0.100000*%
%ADD11R,0.750000X1.200000*%
%ADD12R,0.900000X1.200000*%
%ADD13R,1.200000X0.900000*%
%ADD14R,1.950000X0.600000*%
%ADD15R,0.800000X0.600000*%
%ADD16R,1.550000X0.600000*%
G04 APERTURE END LIST*
D10*
D11*
X61785500Y-92199500D03*
X61785500Y-90299500D03*
X61722000Y-87500500D03*
X61722000Y-85600500D03*
X56134000Y-92580500D03*
X56134000Y-90680500D03*
D12*
X63817500Y-87736500D03*
X63817500Y-89936500D03*
X61785500Y-81323000D03*
X61785500Y-83523000D03*
X56134000Y-81323000D03*
X56134000Y-83523000D03*
X83121500Y-94254500D03*
X83121500Y-92054500D03*
D13*
X81237000Y-92646500D03*
X79037000Y-92646500D03*
D14*
X89028000Y-78549500D03*
X89028000Y-79819500D03*
X89028000Y-81089500D03*
X89028000Y-82359500D03*
X89028000Y-83629500D03*
X89028000Y-84899500D03*
X89028000Y-86169500D03*
X89028000Y-87439500D03*
X89028000Y-88709500D03*
X89028000Y-89979500D03*
X79628000Y-89979500D03*
X79628000Y-88709500D03*
X79628000Y-87439500D03*
X79628000Y-86169500D03*
X79628000Y-84899500D03*
X79628000Y-83629500D03*
X79628000Y-82359500D03*
X79628000Y-81089500D03*
X79628000Y-79819500D03*
X79628000Y-78549500D03*
D11*
X84899500Y-92204500D03*
X84899500Y-94104500D03*
X62484000Y-73911500D03*
X62484000Y-72011500D03*
X64770000Y-73848000D03*
X64770000Y-71948000D03*
D15*
X75628500Y-88607000D03*
X75628500Y-86907000D03*
X75819000Y-77699500D03*
X75819000Y-79399500D03*
X75819000Y-82892000D03*
X75819000Y-81192000D03*
D12*
X65532000Y-83015000D03*
X65532000Y-80815000D03*
X66421000Y-90063500D03*
X66421000Y-87863500D03*
D13*
X70251500Y-75692000D03*
X68051500Y-75692000D03*
D16*
X73629500Y-88773000D03*
X73629500Y-90043000D03*
X73629500Y-91313000D03*
X73629500Y-92583000D03*
X68229500Y-92583000D03*
X68229500Y-91313000D03*
X68229500Y-90043000D03*
X68229500Y-88773000D03*
X73629500Y-77343000D03*
X73629500Y-78613000D03*
X73629500Y-79883000D03*
X73629500Y-81153000D03*
X68229500Y-81153000D03*
X68229500Y-79883000D03*
X68229500Y-78613000D03*
X68229500Y-77343000D03*
X73629500Y-83058000D03*
X73629500Y-84328000D03*
X73629500Y-85598000D03*
X73629500Y-86868000D03*
X68229500Y-86868000D03*
X68229500Y-85598000D03*
X68229500Y-84328000D03*
X68229500Y-83058000D03*
M02*
