G04 #@! TF.FileFunction,Soldermask,Top*
%FSLAX46Y46*%
G04 Gerber Fmt 4.6, Leading zero omitted, Abs format (unit mm)*
G04 Created by KiCad (PCBNEW 4.0.7) date 05/27/18 15:14:11*
%MOMM*%
%LPD*%
G01*
G04 APERTURE LIST*
%ADD10C,0.100000*%
%ADD11R,1.950000X1.000000*%
%ADD12R,1.600000X1.150000*%
%ADD13R,1.300000X1.600000*%
%ADD14R,1.600000X1.300000*%
%ADD15R,1.150000X1.600000*%
%ADD16C,1.416000*%
%ADD17R,1.416000X1.416000*%
%ADD18R,2.400000X1.700000*%
%ADD19R,2.400000X2.400000*%
%ADD20R,2.400000X3.000000*%
%ADD21O,2.400000X3.000000*%
%ADD22C,3.575000*%
%ADD23R,3.400000X3.400000*%
%ADD24C,3.400000*%
G04 APERTURE END LIST*
D10*
D11*
X69883000Y-81597500D03*
X69883000Y-80327500D03*
X69883000Y-79057500D03*
X69883000Y-77787500D03*
X64483000Y-77787500D03*
X64483000Y-79057500D03*
X64483000Y-80327500D03*
X64483000Y-81597500D03*
D12*
X81092000Y-69405500D03*
X82992000Y-69405500D03*
X88648500Y-76327000D03*
X90548500Y-76327000D03*
D13*
X87947500Y-92118000D03*
X87947500Y-94318000D03*
D14*
X92181500Y-93472000D03*
X94381500Y-93472000D03*
D13*
X83121500Y-94254500D03*
X83121500Y-92054500D03*
D14*
X81300500Y-92710000D03*
X79100500Y-92710000D03*
D15*
X86423500Y-92141000D03*
X86423500Y-94041000D03*
X84899500Y-92204500D03*
X84899500Y-94104500D03*
D12*
X81536500Y-86423500D03*
X83436500Y-86423500D03*
D15*
X73469500Y-88902500D03*
X73469500Y-90802500D03*
D12*
X73911500Y-77406500D03*
X72011500Y-77406500D03*
D15*
X74231500Y-81219000D03*
X74231500Y-83119000D03*
D16*
X94361000Y-95250000D03*
X93091000Y-95250000D03*
D17*
X90551000Y-95250000D03*
D16*
X91821000Y-95250000D03*
D14*
X83650000Y-87947500D03*
X81450000Y-87947500D03*
X83650000Y-84836000D03*
X81450000Y-84836000D03*
X94381500Y-78994000D03*
X92181500Y-78994000D03*
D13*
X87185500Y-85768000D03*
X87185500Y-87968000D03*
X71945500Y-92118000D03*
X71945500Y-94318000D03*
X75628500Y-84307500D03*
X75628500Y-86507500D03*
X71818500Y-85577500D03*
X71818500Y-87777500D03*
X72390000Y-83840500D03*
X72390000Y-81640500D03*
D11*
X69883000Y-93345000D03*
X69883000Y-92075000D03*
X69883000Y-90805000D03*
X69883000Y-89535000D03*
X64483000Y-89535000D03*
X64483000Y-90805000D03*
X64483000Y-92075000D03*
X64483000Y-93345000D03*
X69883000Y-87630000D03*
X69883000Y-86360000D03*
X69883000Y-85090000D03*
X69883000Y-83820000D03*
X64483000Y-83820000D03*
X64483000Y-85090000D03*
X64483000Y-86360000D03*
X64483000Y-87630000D03*
D18*
X94389500Y-91316000D03*
D19*
X89969500Y-89916000D03*
D18*
X94389500Y-88516000D03*
D20*
X78168500Y-72453500D03*
D21*
X80708500Y-72453500D03*
X83248500Y-72453500D03*
X85788500Y-72453500D03*
X88328500Y-72453500D03*
D22*
X93980000Y-71120000D03*
X93980000Y-83820000D03*
D23*
X58928000Y-75755500D03*
D24*
X58928000Y-70675500D03*
X58864500Y-81343500D03*
D23*
X58864500Y-91503500D03*
D24*
X58864500Y-86423500D03*
M02*
