G04 #@! TF.FileFunction,Copper,L1,Top,Signal*
%FSLAX46Y46*%
G04 Gerber Fmt 4.6, Leading zero omitted, Abs format (unit mm)*
G04 Created by KiCad (PCBNEW 4.0.7) date 05/27/18 15:14:11*
%MOMM*%
%LPD*%
G01*
G04 APERTURE LIST*
%ADD10C,0.100000*%
%ADD11R,1.550000X0.600000*%
%ADD12R,1.200000X0.750000*%
%ADD13R,0.900000X1.200000*%
%ADD14R,1.200000X0.900000*%
%ADD15R,0.750000X1.200000*%
%ADD16C,1.016000*%
%ADD17R,1.016000X1.016000*%
%ADD18R,2.000000X1.300000*%
%ADD19R,2.000000X2.000000*%
%ADD20R,2.000000X2.600000*%
%ADD21O,2.000000X2.600000*%
%ADD22R,3.000000X3.000000*%
%ADD23C,3.000000*%
%ADD24C,0.508000*%
%ADD25C,0.250000*%
%ADD26C,0.508000*%
%ADD27C,0.762000*%
%ADD28C,0.254000*%
G04 APERTURE END LIST*
D10*
D11*
X69883000Y-81597500D03*
X69883000Y-80327500D03*
X69883000Y-79057500D03*
X69883000Y-77787500D03*
X64483000Y-77787500D03*
X64483000Y-79057500D03*
X64483000Y-80327500D03*
X64483000Y-81597500D03*
D12*
X81092000Y-69405500D03*
X82992000Y-69405500D03*
X88648500Y-76327000D03*
X90548500Y-76327000D03*
D13*
X87947500Y-92118000D03*
X87947500Y-94318000D03*
D14*
X92181500Y-93472000D03*
X94381500Y-93472000D03*
D13*
X83121500Y-94254500D03*
X83121500Y-92054500D03*
D14*
X81300500Y-92710000D03*
X79100500Y-92710000D03*
D15*
X86423500Y-92141000D03*
X86423500Y-94041000D03*
X84899500Y-92204500D03*
X84899500Y-94104500D03*
D12*
X81536500Y-86423500D03*
X83436500Y-86423500D03*
D15*
X73469500Y-88902500D03*
X73469500Y-90802500D03*
D12*
X73911500Y-77406500D03*
X72011500Y-77406500D03*
D15*
X74231500Y-81219000D03*
X74231500Y-83119000D03*
D16*
X94361000Y-95250000D03*
X93091000Y-95250000D03*
D17*
X90551000Y-95250000D03*
D16*
X91821000Y-95250000D03*
D14*
X83650000Y-87947500D03*
X81450000Y-87947500D03*
X83650000Y-84836000D03*
X81450000Y-84836000D03*
X94381500Y-78994000D03*
X92181500Y-78994000D03*
D13*
X87185500Y-85768000D03*
X87185500Y-87968000D03*
X71945500Y-92118000D03*
X71945500Y-94318000D03*
X75628500Y-84307500D03*
X75628500Y-86507500D03*
X71818500Y-85577500D03*
X71818500Y-87777500D03*
X72390000Y-83840500D03*
X72390000Y-81640500D03*
D11*
X69883000Y-93345000D03*
X69883000Y-92075000D03*
X69883000Y-90805000D03*
X69883000Y-89535000D03*
X64483000Y-89535000D03*
X64483000Y-90805000D03*
X64483000Y-92075000D03*
X64483000Y-93345000D03*
X69883000Y-87630000D03*
X69883000Y-86360000D03*
X69883000Y-85090000D03*
X69883000Y-83820000D03*
X64483000Y-83820000D03*
X64483000Y-85090000D03*
X64483000Y-86360000D03*
X64483000Y-87630000D03*
D18*
X94389500Y-91316000D03*
D19*
X89969500Y-89916000D03*
D18*
X94389500Y-88516000D03*
D20*
X78168500Y-72453500D03*
D21*
X80708500Y-72453500D03*
X83248500Y-72453500D03*
X85788500Y-72453500D03*
X88328500Y-72453500D03*
D22*
X58928000Y-75755500D03*
D23*
X58928000Y-70675500D03*
X58864500Y-81343500D03*
D22*
X58864500Y-91503500D03*
D23*
X58864500Y-86423500D03*
D24*
X69405500Y-90360500D03*
X77787500Y-92646500D03*
X84023200Y-94183200D03*
X89966800Y-93218000D03*
X77914500Y-84264500D03*
X94361000Y-80073500D03*
X86614000Y-79375000D03*
X92138500Y-76136500D03*
X71056500Y-93281500D03*
X69088000Y-93599000D03*
X69883000Y-93345000D03*
X68643500Y-87820500D03*
X67945000Y-87820500D03*
X71183500Y-81216500D03*
X68453000Y-82042000D03*
X67881500Y-82105500D03*
X70675500Y-88455500D03*
X69913500Y-88582500D03*
X90805000Y-79756000D03*
X85471000Y-80581500D03*
X76073000Y-89471500D03*
X63563500Y-73914000D03*
X74930000Y-92583000D03*
X75628500Y-87757000D03*
X77152500Y-85280500D03*
X68834000Y-95123000D03*
X64833500Y-90170000D03*
X89027000Y-77470000D03*
X85979000Y-77724000D03*
X71780400Y-82702400D03*
X66929000Y-84264500D03*
X77406500Y-76390500D03*
X77343000Y-80645000D03*
X66992500Y-79121000D03*
X75247500Y-90106500D03*
X90805000Y-81026000D03*
X87312500Y-83756500D03*
X74803000Y-78613000D03*
X86042500Y-88963500D03*
X74676000Y-79883000D03*
X75631416Y-85750120D03*
X76829609Y-94932554D03*
X77978000Y-88392000D03*
X76771500Y-88773000D03*
X76771500Y-92964000D03*
X89598500Y-91503500D03*
X81343500Y-90995500D03*
X84709000Y-84836000D03*
X73469500Y-87820500D03*
X74866500Y-77533500D03*
X75819000Y-82105500D03*
X68199000Y-94361000D03*
X71221600Y-86817200D03*
X70294500Y-82931000D03*
X66421000Y-89090500D03*
X66738500Y-81851500D03*
X69913500Y-76898500D03*
D25*
X77787500Y-92646500D02*
X73469500Y-90802500D01*
X73469500Y-90802500D02*
X71755000Y-90678000D01*
X71755000Y-90678000D02*
X69883000Y-90805000D01*
X82992000Y-69405500D02*
X83248500Y-72453500D01*
X86423500Y-94041000D02*
X84899500Y-94104500D01*
X84899500Y-94104500D02*
X83121500Y-94254500D01*
X83121500Y-94254500D02*
X84023200Y-94183200D01*
X92181500Y-93472000D02*
X89966800Y-93218000D01*
X75628500Y-84307500D02*
X77914500Y-84264500D01*
X94381500Y-78994000D02*
X94361000Y-80073500D01*
X87185500Y-85768000D02*
X86741000Y-84328000D01*
X86741000Y-84328000D02*
X86614000Y-79375000D01*
D26*
X90993000Y-76136500D02*
X92138500Y-76136500D01*
D27*
X69883000Y-93345000D02*
X71056500Y-93281500D01*
X69883000Y-93345000D02*
X69088000Y-93599000D01*
X67945000Y-87820500D02*
X68643500Y-87820500D01*
X68643500Y-87820500D02*
X69883000Y-87630000D01*
X69883000Y-81597500D02*
X71183500Y-81216500D01*
X67881500Y-82105500D02*
X68453000Y-82042000D01*
X69278500Y-82042000D02*
X69883000Y-81597500D01*
X69278500Y-82042000D02*
X68453000Y-82042000D01*
X69883000Y-87630000D02*
X70675500Y-88455500D01*
X69883000Y-87630000D02*
X69913500Y-88582500D01*
D25*
X90805000Y-79756000D02*
X92181500Y-78994000D01*
X85344000Y-89344500D02*
X85471000Y-80581500D01*
X76073000Y-89471500D02*
X85344000Y-89344500D01*
X74930000Y-92583000D02*
X74802940Y-95519319D01*
X77343000Y-87630000D02*
X75628500Y-87757000D01*
X77152500Y-85280500D02*
X77343000Y-87630000D01*
X87947500Y-94318000D02*
X87185500Y-95567500D01*
X87185500Y-95567500D02*
X74802940Y-95519319D01*
X74802940Y-95519319D02*
X70866000Y-95504000D01*
X70866000Y-95504000D02*
X68834000Y-95123000D01*
X64833500Y-90170000D02*
X64483000Y-89535000D01*
X89027000Y-77470000D02*
X89509600Y-80264000D01*
X90525600Y-96215200D02*
X90551000Y-95250000D01*
X95910400Y-96062800D02*
X90525600Y-96215200D01*
X96164400Y-86918800D02*
X95910400Y-96062800D01*
X90932000Y-86563200D02*
X96164400Y-86918800D01*
X90576400Y-82854800D02*
X90932000Y-86563200D01*
X92049600Y-80467200D02*
X90576400Y-82854800D01*
X89509600Y-80264000D02*
X92049600Y-80467200D01*
D26*
X89093000Y-76136500D02*
X89027000Y-77470000D01*
D27*
X81092000Y-69405500D02*
X80708500Y-72453500D01*
D26*
X80708500Y-72453500D02*
X80835500Y-74739500D01*
X80835500Y-74739500D02*
X89027000Y-77470000D01*
D25*
X78676500Y-75311000D02*
X78168500Y-72453500D01*
X85979000Y-77724000D02*
X78676500Y-75311000D01*
X72771000Y-82677000D02*
X74168000Y-83121500D01*
X71780400Y-82702400D02*
X72771000Y-82677000D01*
X74168000Y-83121500D02*
X73533000Y-85217000D01*
X73533000Y-85217000D02*
X74422000Y-87630000D01*
X74422000Y-87630000D02*
X74485500Y-90678000D01*
X74485500Y-90678000D02*
X77279500Y-91821000D01*
X77279500Y-91821000D02*
X78422500Y-91884500D01*
X78422500Y-91884500D02*
X79100500Y-92710000D01*
X66929000Y-85217000D02*
X69883000Y-85090000D01*
X66929000Y-84264500D02*
X66929000Y-85217000D01*
X81450000Y-84836000D02*
X81343500Y-80772000D01*
X72263000Y-76327000D02*
X72011500Y-77406500D01*
X77406500Y-76390500D02*
X72263000Y-76327000D01*
X81343500Y-80772000D02*
X77343000Y-80645000D01*
X69883000Y-79057500D02*
X71755000Y-78740000D01*
X71755000Y-78740000D02*
X72011500Y-77406500D01*
X69883000Y-79057500D02*
X66992500Y-79121000D01*
X75247500Y-90106500D02*
X88011000Y-90106500D01*
X88011000Y-90106500D02*
X88328500Y-80962500D01*
X88328500Y-80962500D02*
X90805000Y-81026000D01*
X87249000Y-78676500D02*
X87312500Y-83756500D01*
X74803000Y-78613000D02*
X87249000Y-78676500D01*
X87185500Y-87968000D02*
X86042500Y-88963500D01*
X86169500Y-79946500D02*
X86042500Y-88963500D01*
X74676000Y-79883000D02*
X86169500Y-79946500D01*
X75631416Y-85750120D02*
X75628500Y-86507500D01*
X77978000Y-88392000D02*
X76771500Y-88773000D01*
X76771500Y-92964000D02*
X76829609Y-94932554D01*
X86423500Y-92141000D02*
X87947500Y-92118000D01*
X87947500Y-92075000D02*
X89598500Y-91503500D01*
X89969500Y-89916000D02*
X94389500Y-88516000D01*
X89969500Y-89916000D02*
X89598500Y-91503500D01*
X81300500Y-92710000D02*
X81343500Y-90995500D01*
X81300500Y-92710000D02*
X83121500Y-92138500D01*
X83121500Y-92138500D02*
X84899500Y-92138500D01*
X81450000Y-87947500D02*
X81536500Y-86423500D01*
X81536500Y-86423500D02*
X83650000Y-84836000D01*
X83650000Y-84836000D02*
X84709000Y-84836000D01*
X73469500Y-88902500D02*
X73469500Y-87820500D01*
X73911500Y-77406500D02*
X74866500Y-77533500D01*
X75819000Y-82105500D02*
X74231500Y-81216500D01*
X71945500Y-94318000D02*
X68199000Y-94361000D01*
X71818500Y-87777500D02*
X71221600Y-86817200D01*
X71374000Y-82169000D02*
X72390000Y-81640500D01*
X71378700Y-82163471D02*
X71374000Y-82169000D01*
X71374000Y-82169000D02*
X70294500Y-82931000D01*
X69883000Y-92075000D02*
X71945500Y-92118000D01*
X68643500Y-89598500D02*
X69883000Y-89535000D01*
X66421000Y-89090500D02*
X68643500Y-89598500D01*
X66738500Y-81851500D02*
X69883000Y-80327500D01*
X69913500Y-76898500D02*
X69883000Y-77787500D01*
X71818500Y-85577500D02*
X69883000Y-86360000D01*
X72390000Y-83883500D02*
X69883000Y-83820000D01*
X94381500Y-93472000D02*
X94389500Y-91316000D01*
D28*
G36*
X70739000Y-85468141D02*
X70731928Y-85471000D01*
X68897500Y-85471000D01*
X68828286Y-85491518D01*
X67558286Y-86317018D01*
X67522312Y-86352335D01*
X67500500Y-86423500D01*
X67500500Y-87218666D01*
X67406185Y-87281685D01*
X67241004Y-87528895D01*
X67183000Y-87820500D01*
X67233524Y-88074500D01*
X58869202Y-88074500D01*
X58986759Y-84841688D01*
X61611893Y-84961013D01*
X62786305Y-85888180D01*
X62831286Y-85910943D01*
X62865000Y-85915500D01*
X65659000Y-85915500D01*
X65721263Y-85899190D01*
X66737263Y-85327690D01*
X66775422Y-85294745D01*
X66797758Y-85249550D01*
X66802000Y-85217000D01*
X66802000Y-84709000D01*
X70739000Y-84709000D01*
X70739000Y-85468141D01*
X70739000Y-85468141D01*
G37*
X70739000Y-85468141D02*
X70731928Y-85471000D01*
X68897500Y-85471000D01*
X68828286Y-85491518D01*
X67558286Y-86317018D01*
X67522312Y-86352335D01*
X67500500Y-86423500D01*
X67500500Y-87218666D01*
X67406185Y-87281685D01*
X67241004Y-87528895D01*
X67183000Y-87820500D01*
X67233524Y-88074500D01*
X58869202Y-88074500D01*
X58986759Y-84841688D01*
X61611893Y-84961013D01*
X62786305Y-85888180D01*
X62831286Y-85910943D01*
X62865000Y-85915500D01*
X65659000Y-85915500D01*
X65721263Y-85899190D01*
X66737263Y-85327690D01*
X66775422Y-85294745D01*
X66797758Y-85249550D01*
X66802000Y-85217000D01*
X66802000Y-84709000D01*
X70739000Y-84709000D01*
X70739000Y-85468141D01*
G36*
X61784451Y-89915223D02*
X63016948Y-91579094D01*
X63054399Y-91612842D01*
X63119000Y-91630500D01*
X65786000Y-91630500D01*
X65835410Y-91620494D01*
X65875803Y-91593303D01*
X67045106Y-90424000D01*
X70993000Y-90424000D01*
X70993000Y-91249500D01*
X68389500Y-91249500D01*
X68340090Y-91259506D01*
X68298465Y-91287947D01*
X68271185Y-91330341D01*
X68262874Y-91366760D01*
X68081402Y-93725897D01*
X68073245Y-93725890D01*
X68071284Y-93726700D01*
X56769000Y-93788800D01*
X56769000Y-89854059D01*
X61784451Y-89915223D01*
X61784451Y-89915223D01*
G37*
X61784451Y-89915223D02*
X63016948Y-91579094D01*
X63054399Y-91612842D01*
X63119000Y-91630500D01*
X65786000Y-91630500D01*
X65835410Y-91620494D01*
X65875803Y-91593303D01*
X67045106Y-90424000D01*
X70993000Y-90424000D01*
X70993000Y-91249500D01*
X68389500Y-91249500D01*
X68340090Y-91259506D01*
X68298465Y-91287947D01*
X68271185Y-91330341D01*
X68262874Y-91366760D01*
X68081402Y-93725897D01*
X68073245Y-93725890D01*
X68071284Y-93726700D01*
X56769000Y-93788800D01*
X56769000Y-89854059D01*
X61784451Y-89915223D01*
G36*
X70739000Y-79502000D02*
X68516500Y-79502000D01*
X68467090Y-79512006D01*
X68425465Y-79540447D01*
X68398185Y-79582841D01*
X68389500Y-79629000D01*
X68389500Y-80489038D01*
X66877708Y-81221737D01*
X66865363Y-81216611D01*
X66612745Y-81216390D01*
X66379272Y-81312860D01*
X66200487Y-81491332D01*
X66103611Y-81724637D01*
X66103390Y-81977255D01*
X66110635Y-81994788D01*
X65874409Y-82110020D01*
X63483755Y-82487492D01*
X59063528Y-82930607D01*
X59177280Y-79762733D01*
X62604206Y-79946318D01*
X62611000Y-79946500D01*
X66167000Y-79946500D01*
X66216410Y-79936494D01*
X66271042Y-79892330D01*
X67122123Y-78676500D01*
X70739000Y-78676500D01*
X70739000Y-79502000D01*
X70739000Y-79502000D01*
G37*
X70739000Y-79502000D02*
X68516500Y-79502000D01*
X68467090Y-79512006D01*
X68425465Y-79540447D01*
X68398185Y-79582841D01*
X68389500Y-79629000D01*
X68389500Y-80489038D01*
X66877708Y-81221737D01*
X66865363Y-81216611D01*
X66612745Y-81216390D01*
X66379272Y-81312860D01*
X66200487Y-81491332D01*
X66103611Y-81724637D01*
X66103390Y-81977255D01*
X66110635Y-81994788D01*
X65874409Y-82110020D01*
X63483755Y-82487492D01*
X59063528Y-82930607D01*
X59177280Y-79762733D01*
X62604206Y-79946318D01*
X62611000Y-79946500D01*
X66167000Y-79946500D01*
X66216410Y-79936494D01*
X66271042Y-79892330D01*
X67122123Y-78676500D01*
X70739000Y-78676500D01*
X70739000Y-79502000D01*
G36*
X65340318Y-79438500D02*
X63504009Y-79438500D01*
X58491522Y-79121254D01*
X58441578Y-79128118D01*
X58398241Y-79153873D01*
X58368337Y-79194460D01*
X58356500Y-79248000D01*
X58356500Y-79518156D01*
X57800391Y-79747936D01*
X57270796Y-80276608D01*
X56983827Y-80967704D01*
X56983174Y-81716013D01*
X57268936Y-82407609D01*
X57797608Y-82937204D01*
X58356500Y-83169277D01*
X58356500Y-83185000D01*
X58366506Y-83234410D01*
X58407300Y-83286600D01*
X58661300Y-83477100D01*
X58706832Y-83498741D01*
X58749460Y-83501936D01*
X63446348Y-83057636D01*
X65405000Y-82938930D01*
X65405000Y-85407500D01*
X63535535Y-85407500D01*
X61787910Y-84346442D01*
X61722000Y-84328000D01*
X58801000Y-84328000D01*
X58783039Y-84329276D01*
X58338539Y-84392776D01*
X58291041Y-84409669D01*
X58253857Y-84443711D01*
X58232847Y-84489537D01*
X58229566Y-84522595D01*
X58233641Y-84648921D01*
X57800391Y-84827936D01*
X57270796Y-85356608D01*
X56983827Y-86047704D01*
X56983174Y-86796013D01*
X57268936Y-87487609D01*
X57797608Y-88017204D01*
X58349690Y-88246449D01*
X58356566Y-88459595D01*
X58368160Y-88508656D01*
X58397928Y-88549342D01*
X58441180Y-88575241D01*
X58482366Y-88582495D01*
X65468500Y-88644871D01*
X65468500Y-91122500D01*
X63558413Y-91122500D01*
X62072426Y-89388849D01*
X62032673Y-89357846D01*
X61976000Y-89344500D01*
X56515000Y-89344500D01*
X56507542Y-89344719D01*
X55574000Y-89399633D01*
X55574000Y-86487694D01*
X55625522Y-72834500D01*
X65279170Y-72834500D01*
X65340318Y-79438500D01*
X65340318Y-79438500D01*
G37*
X65340318Y-79438500D02*
X63504009Y-79438500D01*
X58491522Y-79121254D01*
X58441578Y-79128118D01*
X58398241Y-79153873D01*
X58368337Y-79194460D01*
X58356500Y-79248000D01*
X58356500Y-79518156D01*
X57800391Y-79747936D01*
X57270796Y-80276608D01*
X56983827Y-80967704D01*
X56983174Y-81716013D01*
X57268936Y-82407609D01*
X57797608Y-82937204D01*
X58356500Y-83169277D01*
X58356500Y-83185000D01*
X58366506Y-83234410D01*
X58407300Y-83286600D01*
X58661300Y-83477100D01*
X58706832Y-83498741D01*
X58749460Y-83501936D01*
X63446348Y-83057636D01*
X65405000Y-82938930D01*
X65405000Y-85407500D01*
X63535535Y-85407500D01*
X61787910Y-84346442D01*
X61722000Y-84328000D01*
X58801000Y-84328000D01*
X58783039Y-84329276D01*
X58338539Y-84392776D01*
X58291041Y-84409669D01*
X58253857Y-84443711D01*
X58232847Y-84489537D01*
X58229566Y-84522595D01*
X58233641Y-84648921D01*
X57800391Y-84827936D01*
X57270796Y-85356608D01*
X56983827Y-86047704D01*
X56983174Y-86796013D01*
X57268936Y-87487609D01*
X57797608Y-88017204D01*
X58349690Y-88246449D01*
X58356566Y-88459595D01*
X58368160Y-88508656D01*
X58397928Y-88549342D01*
X58441180Y-88575241D01*
X58482366Y-88582495D01*
X65468500Y-88644871D01*
X65468500Y-91122500D01*
X63558413Y-91122500D01*
X62072426Y-89388849D01*
X62032673Y-89357846D01*
X61976000Y-89344500D01*
X56515000Y-89344500D01*
X56507542Y-89344719D01*
X55574000Y-89399633D01*
X55574000Y-86487694D01*
X55625522Y-72834500D01*
X65279170Y-72834500D01*
X65340318Y-79438500D01*
M02*
