M48
;DRILL file {KiCad 4.0.7} date 05/27/18 15:14:15
;FORMAT={2:4/ absolute / inch / suppress leading zeros}
FMAT,2
INCH,TZ
T1C0.012
T2C0.020
T3C0.047
T4C0.060
T5C0.125
%
G90
G05
M72
T1
X25025Y-29100
X25525Y-35500
X26150Y-35075
X26275Y-32225
X26350Y-33175
X26375Y-31150
X26725Y-32325
X26750Y-34575
X26850Y-37150
X26950Y-32300
X27025Y-34575
X27100Y-37450
X27200Y-36850
X27325Y-35575
X27513Y-36750
X27525Y-30275
X27525Y-34875
X27675Y-32650
X27825Y-34825
X27975Y-36725
X28025Y-31975
X28040Y-34180
X28260Y-32560
X28925Y-34575
X29400Y-31450
X29450Y-30950
X29475Y-30525
X29500Y-36450
X29625Y-35475
X29775Y-34550
X29776Y-33760
X29850Y-32325
X29950Y-35225
X30225Y-34950
X30225Y-36600
X30248Y-37375
X30375Y-33575
X30450Y-31750
X30475Y-30075
X30625Y-36475
X30675Y-33175
X30700Y-34800
X32025Y-35825
X33080Y-37080
X33350Y-33400
X33650Y-31725
X33850Y-30600
X33875Y-35025
X34100Y-31250
X34375Y-32975
X35050Y-30500
X35275Y-36025
X35420Y-36700
X35750Y-31400
X35750Y-31900
X36275Y-29975
X37150Y-31525
T2
X35650Y-37500
X36150Y-37500
X36650Y-37500
X37150Y-37500
T3
X30775Y-28525
X31775Y-28525
X32775Y-28525
X33775Y-28525
X34775Y-28525
T4
X23175Y-32025
X23175Y-34025
X23175Y-36025
X23200Y-27825
X23200Y-29825
T5
X37000Y-28000
X37000Y-33000
T0
M30
